<?xml version="1.0" standalone="no"?>
<!DOCTYPE svg PUBLIC "-//W3C//DTD SVG 20010904//EN"
 "http://www.w3.org/TR/2001/REC-SVG-20010904/DTD/svg10.dtd">
<svg version="1.0" xmlns="http://www.w3.org/2000/svg"
 width="300.000000pt" height="300.000000pt" viewBox="0 0 300.000000 300.000000"
 preserveAspectRatio="xMidYMid meet">

<g transform="translate(0.000000,300.000000) scale(0.100000,-0.100000)"
fill="#000000" stroke="none">
<path d="M0 1500 l0 -1500 1500 0 1500 0 0 1500 0 1500 -1500 0 -1500 0 0
-1500z m1901 950 c211 -245 482 -559 602 -698 l218 -253 -23 -28 c-22 -27
-214 -249 -668 -771 -117 -135 -282 -325 -367 -422 -84 -98 -157 -178 -162
-178 -4 0 -156 170 -337 378 -181 207 -448 514 -594 681 -146 167 -271 313
-279 323 -11 17 -11 22 7 41 10 12 136 157 278 322 282 328 750 867 852 983
36 40 70 72 77 70 7 -2 185 -203 396 -448z"/>
<path d="M1244 2573 c-136 -159 -334 -387 -439 -507 -104 -121 -256 -296 -338
-390 -81 -93 -147 -173 -147 -178 0 -8 336 -401 1023 -1195 82 -95 153 -173
157 -173 11 0 63 58 540 610 642 742 650 751 650 759 0 4 -116 140 -257 302
-142 162 -332 380 -423 484 -366 422 -502 575 -509 575 -4 0 -120 -129 -257
-287z m59 -502 c43 -5 64 -14 85 -34 26 -26 27 -32 27 -125 l0 -97 -51 1 c-64
2 -94 17 -94 49 0 38 -35 55 -116 55 -104 0 -118 -14 -116 -111 2 -48 7 -79
17 -88 10 -10 49 -15 142 -18 145 -5 174 -13 206 -57 21 -29 22 -40 22 -256 0
-334 8 -325 -271 -325 -208 0 -227 4 -257 55 -13 22 -17 54 -17 148 0 67 4
123 9 126 12 8 112 -13 129 -26 7 -6 12 -33 12 -61 0 -76 15 -87 115 -87 116
0 120 6 120 162 0 155 -2 158 -149 158 -130 1 -174 11 -208 50 l-28 30 0 186
c0 223 6 240 90 267 23 8 267 6 333 -2z m815 -469 l2 -462 -34 -38 -34 -37
-195 0 c-213 0 -236 5 -264 58 -20 39 -27 120 -18 201 6 63 8 66 33 66 38 0
106 -20 114 -34 4 -6 8 -29 8 -51 0 -22 7 -51 16 -63 14 -20 24 -22 100 -22
134 0 124 -33 124 419 0 227 4 390 10 406 9 25 13 26 72 23 l63 -3 3 -463z"/>
</g>
</svg>
