<?xml version="1.0" standalone="no"?>
<!DOCTYPE svg PUBLIC "-//W3C//DTD SVG 20010904//EN"
 "http://www.w3.org/TR/2001/REC-SVG-20010904/DTD/svg10.dtd">
<svg version="1.0" xmlns="http://www.w3.org/2000/svg"
 width="500.000000pt" height="500.000000pt" viewBox="0 0 500.000000 500.000000"
 preserveAspectRatio="xMidYMid meet">

<g transform="translate(0.000000,500.000000) scale(0.100000,-0.100000)"
fill="#000000" stroke="none">
<path d="M2254 4048 c-120 -139 -273 -316 -340 -393 -733 -844 -995 -1149
-992 -1161 2 -7 109 -136 239 -286 539 -624 1106 -1277 1159 -1338 32 -36 79
-91 106 -123 27 -31 54 -57 60 -57 11 0 89 83 184 196 19 22 134 155 255 294
121 140 312 360 424 490 112 129 243 280 290 334 47 55 120 138 161 186 41 48
117 134 168 193 50 58 92 109 92 114 0 8 -54 74 -160 193 -32 36 -91 104 -131
151 -63 73 -489 565 -654 754 -29 33 -160 184 -290 335 -316 365 -321 370
-338 370 -8 0 -113 -114 -233 -252z m281 195 c72 -85 342 -399 386 -448 14
-16 100 -115 189 -220 90 -104 166 -192 169 -195 4 -3 78 -88 165 -190 87
-102 182 -212 211 -245 92 -105 175 -206 175 -213 0 -3 -15 11 -32 33 -18 22
-55 65 -83 95 -28 30 -83 91 -121 136 -38 44 -102 118 -143 165 -95 108 -142
162 -342 394 -90 105 -166 192 -169 195 -3 3 -48 55 -100 115 -52 61 -97 112
-100 115 -3 3 -50 57 -105 120 -55 63 -111 127 -125 142 l-25 27 -77 -92 c-43
-51 -88 -103 -101 -117 -25 -28 -340 -391 -527 -609 -69 -80 -190 -220 -269
-311 -315 -362 -389 -447 -472 -544 l-87 -100 96 -111 c53 -60 99 -112 102
-115 3 -3 100 -115 215 -249 475 -554 539 -628 569 -661 39 -44 117 -139 136
-165 23 -33 -4 -4 -71 75 -35 41 -66 77 -70 80 -3 3 -39 43 -78 89 -40 46 -77
89 -84 96 -7 7 -34 39 -62 71 -27 32 -84 97 -125 145 -41 47 -129 148 -195
224 -66 76 -193 222 -282 324 -90 102 -163 191 -163 198 0 7 28 45 62 84 35
40 96 111 137 158 41 47 97 113 126 146 181 209 275 318 324 375 31 36 70 81
87 100 82 93 194 221 339 390 88 102 162 187 165 190 8 7 250 287 278 321 13
16 26 29 30 29 4 0 25 -21 47 -47z m11 -64 c27 -30 220 -253 429 -494 209
-242 412 -476 450 -520 39 -44 184 -212 324 -373 227 -263 252 -295 239 -310
-8 -9 -86 -100 -174 -202 -88 -102 -191 -221 -230 -266 -109 -127 -873 -1007
-1042 -1201 l-53 -61 -72 81 c-40 45 -115 132 -167 192 -52 61 -97 112 -100
115 -3 3 -109 124 -235 270 -126 146 -270 312 -321 370 -50 58 -184 213 -298
345 -114 132 -234 270 -266 306 l-59 66 48 54 c26 30 119 137 207 239 329 381
672 776 1077 1243 99 114 183 206 187 205 3 -2 29 -28 56 -59z m1050 -2197
c-17 -16 -18 -16 -5 5 7 12 15 20 18 17 3 -2 -3 -12 -13 -22z m-96 -105 c0 -2
-10 -12 -22 -23 l-23 -19 19 23 c18 21 26 27 26 19z m-40 -50 c0 -2 -10 -12
-22 -23 l-23 -19 19 23 c18 21 26 27 26 19z m-50 -60 c0 -2 -10 -12 -22 -23
l-23 -19 19 23 c18 21 26 27 26 19z"/>
</g>
</svg>
